<?xml version="1.0" encoding="utf-8"?>
<!-- Generator: Adobe Illustrator 18.0.0, SVG Export Plug-In . SVG Version: 6.00 Build 0)  -->
<!DOCTYPE svg PUBLIC "-//W3C//DTD SVG 1.1//EN" "http://www.w3.org/Graphics/SVG/1.1/DTD/svg11.dtd">
<svg version="1.1" id="ecommerce_1_" xmlns="http://www.w3.org/2000/svg" xmlns:xlink="http://www.w3.org/1999/xlink" x="0px"
	 y="0px" viewBox="0 0 115 115" style="enable-background:new 0 0 115 115;" xml:space="preserve">
<style type="text/css">
	.st0{fill:#FFEEAD;}
	.st1{fill:#C9B77D;}
	.st2{fill:#99734A;}
	.st3{fill:#FF6F69;}
	.st4{fill:#96CEB4;}
	.st5{fill:none;}
	.st6{fill:#AA9865;}
	.st7{fill:#71A58A;}
	.st8{fill:#FFCC5C;}
	.st9{fill:#825E3B;}
	.st10{fill:#639376;}
	.st11{fill:#E05858;}
	.st12{fill:#C1821E;}
	.st13{fill:#D6A041;}
	.st14{fill:#B28559;}
	.st15{fill:#BF4343;}
	.st16{fill:#D3C089;}
	.st17{fill:#7C5C3C;}
	.st18{fill:#FDCC5C;}
	.st19{fill:#FFFFFF;}
</style>
<g id="groceries_1_">
	<g>
		<path class="st3" d="M87.498,0.083H23.713c-3.364,0-6.091,2.727-6.091,6.091v92.614c0,3.364,2.727,6.091,6.091,6.091h63.786
			c3.364,0,6.091-2.727,6.091-6.091V6.174C93.589,2.81,90.862,0.083,87.498,0.083z"/>
	</g>
	<g>
		<path class="st11" d="M44.765,75.262c0-12.3-10.625-23.271-12.525-28.601v-3.688h0.002v-0.981h0.096
			c2.023,0,3.677-1.655,3.677-3.677c0-2.023-1.655-3.677-3.677-3.677H21.077c-1.597,0-2.95,1.037-3.455,2.467v2.421
			c0.505,1.429,1.858,2.467,3.455,2.467h0.099v0.981h-0.002v3.688c-0.356,0.999-1.019,2.197-1.862,3.565
			c-0.281,0.456-0.581,0.931-0.897,1.423c-0.254,0.396-0.523,0.811-0.794,1.229v44.696c0,4.035,3.271,7.306,7.306,7.306h19.538
			c0.182-0.846,0.3-1.715,0.3-2.614h0.002V75.262H44.765z"/>
	</g>
	<g>
		<path class="st11" d="M66.593,32.295c-1.753,0-3.173,1.421-3.173,3.173v69.411h22.863c4.035,0,7.306-3.271,7.306-7.306V32.295
			H66.593z"/>
	</g>
	<g>
		<path class="st5" d="M44.765,75.262h0.002v3.899v14.912H63.42V68.174H43.664C44.342,70.464,44.765,72.835,44.765,75.262z"/>
		<rect x="44.767" y="95.701" class="st5" width="18.653" height="1.851"/>
		<g>
			<path class="st4" d="M42.158,55.255c-1.062,0-1.931,0.869-1.931,1.931c0,1.062,0.869,1.931,1.931,1.931H63.42v-3.862H42.158z"/>
		</g>
		<g>
			<path class="st4" d="M42.267,64.312c0.537,1.254,1.006,2.546,1.396,3.862H63.42v-3.862H42.267z"/>
		</g>
		<g>
			<rect x="44.767" y="94.073" class="st4" width="18.653" height="1.629"/>
		</g>
		<g>
			<rect x="44.767" y="97.552" class="st4" width="18.653" height="1.629"/>
		</g>
		<g>
			<path class="st7" d="M42.267,64.312h-0.109c-1.062,0-1.931,0.869-1.931,1.931c0,1.062,0.869,1.931,1.931,1.931h1.506
				C43.274,66.857,42.804,65.566,42.267,64.312z"/>
		</g>
		<g>
			<path class="st7" d="M41.041,94.073c-0.448,0-0.814,0.366-0.814,0.814c0,0.448,0.366,0.814,0.814,0.814h3.726v-1.629H41.041z"/>
		</g>
		<g>
			<path class="st7" d="M41.041,97.552c-0.448,0-0.814,0.366-0.814,0.814s0.366,0.814,0.814,0.814h3.726v-1.629H41.041z"/>
		</g>
		<g>
			<path class="st7" d="M70.554,55.255H63.42v3.862h7.135c1.062,0,1.931-0.869,1.931-1.931
				C72.485,56.124,71.616,55.255,70.554,55.255z"/>
		</g>
		<g>
			<path class="st7" d="M70.554,64.312H63.42v3.862h7.135c1.062,0,1.931-0.869,1.931-1.931
				C72.485,65.181,71.616,64.312,70.554,64.312z"/>
		</g>
		<g>
			<path class="st7" d="M71.671,94.073H63.42v1.629h8.251c0.448,0,0.814-0.366,0.814-0.814
				C72.485,94.439,72.119,94.073,71.671,94.073z"/>
		</g>
		<g>
			<path class="st7" d="M71.671,97.552H63.42v1.629h8.251c0.448,0,0.814-0.366,0.814-0.814S72.119,97.552,71.671,97.552z"/>
		</g>
	</g>
	<g>
		<ellipse class="st0" cx="56.356" cy="29.483" rx="23.14" ry="15.975"/>
	</g>
	<g>
		<path class="st1" d="M66.593,32.295c-1.753,0-3.173,1.421-3.173,3.173v9.225c8.065-1.784,14.186-6.538,15.697-12.399H66.593z"/>
	</g>
	<g>
		<g>
			<path class="st7" d="M4.705,75.262L4.705,75.262c0-1.537,0.166-3.054,0.46-4.542C4.871,72.207,4.705,73.724,4.705,75.262z"/>
		</g>
		<g>
			<path class="st7" d="M17.027,40.946c0.207,0.043,0.422,0.065,0.641,0.065h0C17.449,41.011,17.234,40.989,17.027,40.946z"/>
		</g>
		<g>
			<path class="st7" d="M15.965,49.231c0.559-0.961,0.998-1.822,1.265-2.571v0C16.963,47.41,16.523,48.271,15.965,49.231z"/>
		</g>
		<g>
			<path class="st7" d="M12.432,54.809c0.715-1.119,1.408-2.176,2.039-3.161C13.84,52.633,13.147,53.69,12.432,54.809z"/>
		</g>
		<g>
			<g>
				<path class="st4" d="M28.294,46.66v-3.688H17.228v3.688c-0.356,0.999-1.019,2.197-1.862,3.565
					c-0.281,0.456-0.581,0.931-0.897,1.423c-0.632,0.985-1.324,2.042-2.039,3.161c-0.715,1.119-1.454,2.301-2.177,3.538
					c-0.362,0.618-0.72,1.25-1.069,1.895c-1.748,3.222-3.285,6.759-4.02,10.478c-0.294,1.488-0.46,3.004-0.46,4.542h36.116
					C40.819,62.961,30.195,51.99,28.294,46.66z"/>
			</g>
			<g>
				<path class="st4" d="M40.819,102.265H4.703c0,1.322,0.203,2.599,0.579,3.801c0.376,1.202,0.925,2.33,1.618,3.353
					c0.462,0.682,0.988,1.318,1.569,1.899c0.871,0.871,1.866,1.618,2.956,2.212c1.816,0.99,3.894,1.553,6.097,1.553h10.481
					c0.551,0,1.09-0.047,1.623-0.115c0.147-0.019,0.292-0.044,0.438-0.067c0.424-0.07,0.841-0.159,1.25-0.27
					c0.108-0.029,0.219-0.052,0.326-0.084c0.507-0.151,1.001-0.332,1.479-0.543c0.079-0.035,0.154-0.076,0.233-0.112
					c0.411-0.191,0.81-0.403,1.197-0.635c0.096-0.057,0.191-0.114,0.285-0.174c0.904-0.574,1.73-1.256,2.463-2.03
					c0.05-0.053,0.098-0.108,0.147-0.162c0.34-0.372,0.66-0.761,0.955-1.171c0.022-0.03,0.046-0.059,0.067-0.09
					c0.324-0.459,0.621-0.939,0.885-1.44c-0.008,0.005-0.018,0.008-0.026,0.013C40.267,106.423,40.819,104.41,40.819,102.265z"/>
			</g>
		</g>
		<g>
			<g>
				<rect x="4.705" y="75.262" class="st3" width="36.116" height="3.899"/>
			</g>
			<g>
				<rect x="4.705" y="98.366" class="st3" width="36.116" height="3.899"/>
			</g>
		</g>
		<g>
			<rect x="4.705" y="79.16" class="st0" width="36.116" height="19.206"/>
		</g>
		<g>
			<rect x="17.23" y="41.011" class="st7" width="11.066" height="3.046"/>
		</g>
		<g>
			<path class="st4" d="M28.392,34.637H17.131c-2.022,0-3.677,1.655-3.677,3.677c0,2.023,1.655,3.677,3.677,3.677h11.261
				c2.023,0,3.677-1.655,3.677-3.677C32.069,36.292,30.415,34.637,28.392,34.637z"/>
		</g>
	</g>
	<g>
		<g>
			<path class="st7" d="M4.705,75.262L4.705,75.262c0-1.537,0.166-3.054,0.46-4.542C4.871,72.207,4.705,73.724,4.705,75.262z"/>
		</g>
		<g>
			<path class="st7" d="M17.027,40.946c0.207,0.043,0.422,0.065,0.641,0.065h0C17.449,41.011,17.234,40.989,17.027,40.946z"/>
		</g>
		<g>
			<path class="st7" d="M15.965,49.231c0.559-0.961,0.998-1.822,1.265-2.571v0C16.963,47.41,16.523,48.271,15.965,49.231z"/>
		</g>
		<g>
			<path class="st7" d="M12.432,54.809c0.715-1.119,1.408-2.176,2.039-3.161C13.84,52.633,13.147,53.69,12.432,54.809z"/>
		</g>
		<g>
			<g>
				<path class="st4" d="M28.294,46.66v-3.688H17.228v3.688c-0.356,0.999-1.019,2.197-1.862,3.565
					c-0.281,0.456-0.581,0.931-0.897,1.423c-0.632,0.985-1.324,2.042-2.039,3.161c-0.715,1.119-1.454,2.301-2.177,3.538
					c-0.362,0.618-0.72,1.25-1.069,1.895c-1.748,3.222-3.285,6.759-4.02,10.478c-0.294,1.488-0.46,3.004-0.46,4.542h36.116
					C40.819,62.961,30.195,51.99,28.294,46.66z"/>
			</g>
			<g>
				<path class="st4" d="M40.819,102.265H4.703c0,1.322,0.203,2.599,0.579,3.801c0.376,1.202,0.925,2.33,1.618,3.353
					c0.462,0.682,0.988,1.318,1.569,1.899c0.871,0.871,1.866,1.618,2.956,2.212c1.816,0.99,3.894,1.553,6.097,1.553h10.481
					c0.551,0,1.09-0.047,1.623-0.115c0.147-0.019,0.292-0.044,0.438-0.067c0.424-0.07,0.841-0.159,1.25-0.27
					c0.108-0.029,0.219-0.052,0.326-0.084c0.507-0.151,1.001-0.332,1.479-0.543c0.079-0.035,0.154-0.076,0.233-0.112
					c0.411-0.191,0.81-0.403,1.197-0.635c0.096-0.057,0.191-0.114,0.285-0.174c0.904-0.574,1.73-1.256,2.463-2.03
					c0.05-0.053,0.098-0.108,0.147-0.162c0.34-0.372,0.66-0.761,0.955-1.171c0.022-0.03,0.046-0.059,0.067-0.09
					c0.324-0.459,0.621-0.939,0.885-1.44c-0.008,0.005-0.018,0.008-0.026,0.013C40.267,106.423,40.819,104.41,40.819,102.265z"/>
			</g>
		</g>
		<g>
			<g>
				<rect x="4.705" y="75.262" class="st3" width="36.116" height="3.899"/>
			</g>
			<g>
				<rect x="4.705" y="98.366" class="st3" width="36.116" height="3.899"/>
			</g>
		</g>
		<g>
			<rect x="4.705" y="79.16" class="st0" width="36.116" height="19.206"/>
		</g>
		<g>
			<rect x="17.23" y="41.011" class="st7" width="11.066" height="3.046"/>
		</g>
		<g>
			<path class="st4" d="M28.392,34.637H17.131c-2.022,0-3.677,1.655-3.677,3.677c0,2.023,1.655,3.677,3.677,3.677h11.261
				c2.023,0,3.677-1.655,3.677-3.677C32.069,36.292,30.415,34.637,28.392,34.637z"/>
		</g>
	</g>
	<g>
		<g>
			<rect x="4.705" y="75.262" class="st11" width="2.842" height="3.899"/>
		</g>
		<g>
			<rect x="4.705" y="98.366" class="st11" width="2.842" height="3.899"/>
		</g>
		<g>
			<rect x="4.705" y="79.16" class="st1" width="2.842" height="19.206"/>
		</g>
		<g>
			<rect x="17.23" y="41.992" class="st7" width="2.842" height="0.981"/>
		</g>
		<g>
			<rect x="17.23" y="42.973" class="st7" width="2.841" height="1.085"/>
		</g>
		<g>
			<g>
				<path class="st7" d="M17.23,44.058v-1.085h-0.002v3.688c-0.356,0.999-1.019,2.197-1.862,3.565
					c-0.281,0.456-0.581,0.931-0.897,1.423c-0.632,0.985-1.324,2.042-2.039,3.161c-0.715,1.119-1.454,2.301-2.177,3.538
					c-0.362,0.618-0.72,1.25-1.069,1.895c-1.748,3.222-3.285,6.759-4.02,10.478c-0.294,1.488-0.46,3.004-0.46,4.542h2.842
					c0-1.537,0.166-3.054,0.46-4.542c0.736-3.719,2.273-7.255,4.02-10.478c0.349-0.645,0.708-1.276,1.069-1.895
					c0.723-1.237,1.462-2.419,2.177-3.538c0.715-1.119,1.408-2.176,2.039-3.161c0.316-0.493,0.616-0.967,0.897-1.423
					c0.842-1.368,1.505-2.565,1.862-3.565v-2.602H17.23z"/>
			</g>
			<g>
				<path class="st7" d="M14.267,113.53c-1.089-0.594-2.085-1.341-2.956-2.212c-0.581-0.581-1.107-1.217-1.568-1.899
					c-0.693-1.023-1.242-2.151-1.618-3.353c-0.376-1.202-0.579-2.479-0.579-3.801H4.703c0,1.322,0.203,2.599,0.579,3.801
					c0.376,1.202,0.925,2.33,1.618,3.353c0.462,0.682,0.988,1.318,1.569,1.899c0.871,0.871,1.866,1.618,2.956,2.212
					c1.816,0.99,3.894,1.553,6.097,1.553h2.842C18.16,115.083,16.082,114.519,14.267,113.53z"/>
			</g>
			<g>
				<path class="st7" d="M17.668,41.011c-0.067,0-0.13-0.016-0.196-0.02c-0.719-0.672-1.177-1.621-1.177-2.677
					c0-2.023,1.655-3.677,3.677-3.677h-2.842c-2.023,0-3.677,1.655-3.677,3.677c0,2.022,1.655,3.677,3.677,3.677h2.842
					c-0.955,0-1.821-0.378-2.476-0.981H17.668z"/>
			</g>
			<g>
				<rect x="20.071" y="42.973" class="st7" width="0.002" height="1.085"/>
			</g>
			<g>
				<path class="st7" d="M7.547,75.262L7.547,75.262c0-1.537,0.166-3.054,0.46-4.542C7.714,72.207,7.547,73.724,7.547,75.262z"/>
			</g>
			<g>
				<path class="st7" d="M19.75,47.446c0.125-0.274,0.234-0.536,0.323-0.786v0C19.983,46.91,19.875,47.172,19.75,47.446z"/>
			</g>
		</g>
	</g>
	<g>
		<g>
			<g>
				<path class="st7" d="M67.979,56.794v54.413c0,2.141,1.735,3.876,3.876,3.876h33.567c2.141,0,3.876-1.735,3.876-3.876V56.794
					H67.979z"/>
			</g>
			<g>
				<path class="st7" d="M106.124,31.044H71.152c-1.753,0-3.173,1.421-3.173,3.173v5.429h41.319v-5.429
					C109.298,32.465,107.877,31.044,106.124,31.044z"/>
			</g>
			<g>
				<rect x="67.979" y="38.356" class="st4" width="41.319" height="18.483"/>
			</g>
			<g>
				<circle class="st1" cx="89.12" cy="47.598" r="4.366"/>
			</g>
			<g>
				<circle class="st0" cx="89.12" cy="45.594" r="4.366"/>
			</g>
		</g>
		<g>
			<path class="st0" d="M106.126,100.509c-2.204,0.503-4.04-2.133-3.797-4.381c0.243-2.248,1.748-4.118,2.932-6.044
				c3.139-5.104,4.849-15.703,2.377-16.898c-1.442-0.494-2.579-0.246-3.173,0.948c-0.594,1.193-0.04,3.119,0.011,4.451
				c0.035,0.923,0.096,1.888-0.287,2.729c-0.383,0.84-1.383,1.483-2.235,1.128c-1.154-0.481-1.07-2.114-0.867-3.348
				c0.399-2.42,0.485-4.891,0.257-7.333c-0.17-1.817-0.555-3.708-1.732-5.103c-1.177-1.395-3.354-2.087-4.889-1.1
				c-1.66,1.067-1.83,3.432-1.472,5.373c0.49,2.658,1.616,5.15,2.453,7.72c0.837,2.57,1.385,5.354,0.686,7.965
				c-0.7,2.611-2.946,4.961-5.648,5.025c-0.727,0.017-1.551-0.193-1.897-0.833c-0.231-0.426-0.194-0.942-0.136-1.424
				c0.295-2.463,0.975-4.882,1.049-7.361c0.074-2.479-0.573-5.147-2.457-6.76c-1.884-1.613-5.197-1.613-6.562,0.457
				c-1.13,1.714-0.583,4.023,0.295,5.879c0.877,1.857,2.071,3.666,2.157,5.718c0.159,3.798-3.648,6.737-7.406,7.311
				c-1.477,0.226-2.988,0.2-4.448,0.514c-1.215,0.261-2.348,0.788-3.355,1.501v14.563c0,2.141,1.735,3.876,3.876,3.876h33.567
				c2.141,0,3.876-1.735,3.876-3.876V97.895C108.368,98.988,107.427,100.212,106.126,100.509z"/>
		</g>
	</g>
</g>
</svg>
